<svg width="165" height="154" viewBox="0 0 165 154" fill="none" xmlns="http://www.w3.org/2000/svg">
<path d="M127.457 129.201C130.36 129.201 132.646 130.005 134.316 131.613C136.058 133.151 136.929 135.214 136.929 137.801V153.321H28.9286V144.722C28.9286 142.974 29.2915 141.156 30.0173 139.269C30.8157 137.311 32.0496 135.563 33.7189 134.025L81.5133 87.8819C85.5052 83.9667 89.0617 80.2263 92.1826 76.6607C95.3762 73.0951 98.0254 69.5644 100.13 66.0687C102.235 62.573 103.832 59.0424 104.921 55.4768C106.082 51.8412 106.662 48.0309 106.662 44.0458C106.662 40.4103 106.118 37.2292 105.029 34.5026C103.941 31.706 102.38 29.3639 100.348 27.4762C98.3883 25.5885 95.9931 24.1902 93.1625 23.2814C90.4044 22.3026 87.2834 21.8132 83.7996 21.8132C80.606 21.8132 77.6302 22.2676 74.8721 23.1765C72.1867 24.0155 69.7915 25.2389 67.6866 26.847C65.5818 28.3851 63.8036 30.2028 62.352 32.3003C60.9004 34.3977 59.8117 36.7048 59.0858 39.2218C57.852 42.4378 56.2552 44.5702 54.2955 45.6189C52.3358 46.6676 49.5052 46.9123 45.8036 46.353L31.6504 43.9409C32.7391 36.6699 34.8439 30.3077 37.9649 24.8544C41.0858 19.3312 44.9689 14.7519 49.6141 11.1163C54.3318 7.41088 59.7028 4.64928 65.727 2.83151C71.8237 0.943839 78.356 0 85.3237 0C92.5818 0 99.2229 1.04871 105.247 3.14613C111.271 5.17363 116.425 8.07506 120.707 11.8504C124.989 15.6258 128.328 20.1702 130.723 25.4836C133.118 30.7971 134.316 36.7049 134.316 43.2068C134.316 48.8 133.445 53.9736 131.703 58.7278C130.033 63.4819 127.747 68.0263 124.844 72.361C122.013 76.6957 118.675 80.8905 114.828 84.9455C110.981 89.0005 106.953 93.1255 102.743 97.3203L67.2512 132.242C70.6625 131.264 74.0375 130.529 77.3762 130.04C80.7875 129.481 84.0173 129.201 87.0657 129.201H127.457Z" fill="#131319"/>
<path d="M6.50977 77.7857C2.16992 77.7857 0 75.6139 0 71.2703V69.5473H5.2782V72.0956C5.2782 72.5878 5.37594 72.9739 5.57143 73.2539C5.76692 73.5338 6.0797 73.6738 6.50977 73.6738C7.27218 73.6738 7.65338 73.1091 7.65338 71.9797C7.65338 71.0338 7.45301 70.3292 7.05226 69.8658C6.6515 69.3929 6.16278 68.9392 5.58609 68.5048L2.78571 66.3765C1.90601 65.7008 1.23647 64.9865 0.777068 64.2336C0.317669 63.4807 0.0879699 62.4334 0.0879699 61.0917C0.0879699 59.8465 0.38609 58.8185 0.982331 58.0077C1.58835 57.1969 2.38496 56.5936 3.37218 56.1979C4.36917 55.8021 5.44436 55.6043 6.59774 55.6043C10.8594 55.6043 12.9902 57.7037 12.9902 61.9025V62.3079H7.56541V61.4826C7.56541 61.0483 7.48722 60.6284 7.33083 60.223C7.18421 59.8176 6.89098 59.6149 6.45113 59.6149C5.70827 59.6149 5.33684 60.001 5.33684 60.7732C5.33684 61.555 5.64962 62.168 6.27519 62.612L9.53007 64.9575C10.5466 65.6815 11.397 66.5405 12.0812 67.5348C12.7752 68.529 13.1222 69.8514 13.1222 71.5019C13.1222 73.5483 12.5308 75.1071 11.3481 76.1786C10.1752 77.25 8.56241 77.7857 6.50977 77.7857Z" fill="#37A22E"/>
<path d="M14.735 77.5541V52.0714H20.1305V57.9932C20.4139 57.1824 20.8489 56.584 21.4353 56.1979C22.0218 55.8021 22.706 55.6043 23.488 55.6043C25.0128 55.6043 26.1222 56.0772 26.8162 57.0232C27.5101 57.9691 27.8571 59.2384 27.8571 60.8311V77.5541H22.5496V61.1641C22.5496 60.6911 22.447 60.305 22.2417 60.0058C22.0462 59.7066 21.7335 59.557 21.3034 59.557C20.9417 59.557 20.6534 59.7114 20.4383 60.0203C20.2331 60.3292 20.1305 60.696 20.1305 61.1207V77.5541H14.735Z" fill="#37A22E"/>
<path d="M14.4433 127.071C9.20253 127.071 5.47992 125.748 3.27548 123.102C1.09183 120.455 0 116.568 0 111.439V97.2225C0 93.3658 0.415933 90.1552 1.2478 87.5909C2.07967 85.0265 3.53543 83.1084 5.6151 81.8365C7.69477 80.5646 10.5855 79.9286 14.2873 79.9286C16.8661 79.9286 19.1745 80.3799 21.2126 81.2826C23.2715 82.1852 24.8936 83.5084 26.079 85.2522C27.2644 86.9959 27.8571 89.1295 27.8571 91.6528V98.6996H16.471V92.2375C16.471 91.1707 16.315 90.2783 16.003 89.5603C15.6911 88.8217 15.0152 88.4525 13.9754 88.4525C12.1453 88.4525 11.2302 89.7347 11.2302 92.299V114.67C11.2302 115.614 11.4382 116.486 11.8541 117.286C12.27 118.066 12.9563 118.455 13.913 118.455C14.8904 118.455 15.5663 118.076 15.9406 117.317C16.3358 116.537 16.5334 115.635 16.5334 114.609V106.854H27.8571V114.916C27.8571 117.46 27.2748 119.645 26.1102 121.471C24.9664 123.276 23.3859 124.661 21.3686 125.625C19.3513 126.589 17.0429 127.071 14.4433 127.071Z" fill="white"/>
<path d="M49.5633 129.214C45.3753 129.214 42.1757 128.242 39.9645 126.298C37.7868 124.353 36.2959 121.688 35.4918 118.302C34.6877 114.916 34.2856 111.077 34.2856 106.786C34.2856 102.193 34.7379 98.4376 35.6425 95.5209C36.5471 92.5706 38.0883 90.1567 40.266 88.2793C42.4773 86.4019 45.5093 84.8094 49.3623 83.5019L60.519 79.6799V71.9355C60.519 67.8789 59.1956 65.8505 56.5488 65.8505C54.1365 65.8505 52.9304 67.4933 52.9304 70.7788V75.3048H35.4415C35.408 75.0366 35.3913 74.7014 35.3913 74.299C35.3913 73.8632 35.3913 73.3771 35.3913 72.8407C35.3913 65.3309 37.1502 60.0171 40.6681 56.8992C44.2195 53.7477 49.8313 52.172 57.5036 52.172C61.5241 52.172 65.1257 52.8928 68.3085 54.3344C71.4914 55.7425 74.0042 57.8379 75.8469 60.6205C77.7231 63.4032 78.6612 66.8396 78.6612 70.9297V128.41H60.7702V119.458C59.8991 122.61 58.4585 125.024 56.4483 126.7C54.4381 128.376 52.1431 129.214 49.5633 129.214ZM56.6493 115.234C58.1235 115.234 59.1286 114.614 59.6646 113.373C60.2007 112.133 60.4687 110.792 60.4687 109.35V88.3296C57.9894 89.3354 56.063 90.6093 54.6893 92.1515C53.3157 93.6602 52.6289 95.8897 52.6289 98.8399V108.546C52.6289 113.005 53.969 115.234 56.6493 115.234Z" fill="#4A465D"/>
<path d="M85.5964 128.41V52.9766H103.889V61.3749C104.76 58.4581 106.302 56.1784 108.513 54.5356C110.724 52.8928 113.505 52.0714 116.855 52.0714V67.1078C115.381 67.1078 113.622 67.2754 111.578 67.6107C109.535 67.9124 107.742 68.3482 106.201 68.9182C104.66 69.4546 103.889 70.058 103.889 70.7285V128.41H85.5964Z" fill="#4A465D"/>
<path d="M142.385 129.214C137.024 129.214 132.753 128.209 129.57 126.197C126.387 124.185 124.109 121.285 122.735 117.497C121.361 113.709 120.675 109.149 120.675 103.819V73.4944C120.675 66.4875 122.685 61.1905 126.705 57.6032C130.726 53.9824 136.254 52.172 143.29 52.172C157.763 52.172 165 59.2795 165 73.4944V78.9759C165 85.614 164.933 90.0729 164.799 92.3527H138.666V106.936C138.666 108.277 138.75 109.602 138.917 110.909C139.085 112.183 139.453 113.239 140.023 114.077C140.626 114.916 141.581 115.335 142.888 115.335C144.764 115.335 145.936 114.53 146.405 112.921C146.874 111.278 147.109 109.149 147.109 106.534V99.2925H165V103.567C165 109.199 164.296 113.927 162.889 117.748C161.516 121.537 159.17 124.403 155.853 126.348C152.57 128.259 148.081 129.214 142.385 129.214ZM138.566 83.4013H147.109V73.243C147.109 70.5274 146.774 68.5829 146.104 67.4095C145.434 66.2026 144.429 65.5991 143.089 65.5991C141.648 65.5991 140.526 66.169 139.721 67.3089C138.951 68.4488 138.566 70.4268 138.566 73.243V83.4013Z" fill="#4A465D"/>
</svg>
